<svg width="14" height="14" viewBox="0 0 14 14" fill="none" xmlns="http://www.w3.org/2000/svg">
<path d="M6.10853 0.0369297C4.48958 0.250296 3.05385 0.977933 1.91894 2.16786C0.937179 3.1964 0.289051 4.50396 0.0648037 5.90453C-0.00629906 6.3422 -0.0227075 7.37895 0.0347216 7.84671C0.299989 10.0351 1.57163 11.9527 3.49687 13.0797C4.19696 13.4873 4.99823 13.7745 5.85967 13.9249C6.33551 14.007 7.34462 14.0262 7.84781 13.9605C10.8615 13.583 13.2735 11.3481 13.8751 8.38013C14.0037 7.75097 14.0365 6.78261 13.9572 6.12337C13.5634 2.95842 11.0365 0.430839 7.87242 0.0369298C7.45675 -0.0123094 6.50233 -0.0123095 6.10853 0.0369297ZM8.27716 2.74505C8.43851 2.83259 8.55337 2.95021 8.64361 3.12255C8.69557 3.21829 8.70651 3.2812 8.70651 3.49731C8.70651 3.73529 8.69831 3.77085 8.62447 3.90489C8.54243 4.05261 8.40023 4.18665 8.22794 4.27965C8.08026 4.35898 7.65365 4.35351 7.49777 4.26871C7.20789 4.11552 7.05201 3.88027 7.03013 3.56843C7.01646 3.33318 7.05201 3.1882 7.1696 3.01313C7.25985 2.87635 7.46222 2.72317 7.60989 2.67666C7.65638 2.66299 7.79312 2.65478 7.91345 2.65752C8.09394 2.66572 8.15684 2.6794 8.27716 2.74505ZM7.95994 4.84043C8.29357 4.91155 8.5397 5.08935 8.66002 5.35196C8.72019 5.48326 8.72566 5.52703 8.71198 5.72398C8.69831 5.92915 8.65182 6.07686 8.0283 7.77833L7.36103 9.6111L8.03924 9.6193L8.72019 9.62477L8.72019 9.7424C8.71745 10.1555 8.41937 10.6588 8.02557 10.9077C7.77944 11.0609 7.61536 11.1101 6.89886 11.2387C6.13861 11.3755 5.96633 11.3837 5.78036 11.2934C5.59987 11.2059 5.42212 11.0226 5.33734 10.8366C5.27444 10.7026 5.26897 10.6615 5.28265 10.4618C5.29632 10.2567 5.34828 10.1035 5.96633 8.40749L6.63633 6.57472L5.95539 6.56651L5.27444 6.56104L5.27444 6.44068C5.27444 6.26834 5.36742 5.9948 5.48775 5.80605C5.62449 5.59268 5.91437 5.33281 6.14408 5.21245C6.48319 5.03464 7.20789 4.85684 7.7685 4.81307C7.79312 4.81307 7.88063 4.82401 7.95994 4.84043Z" fill="#CFCFCF"/>
</svg>
