<svg width="24" height="23" viewBox="0 0 24 23" fill="none" xmlns="http://www.w3.org/2000/svg">
<path d="M11.6038 0.0704556C11.5192 0.107651 11.4083 0.187357 11.3607 0.240496C11.3132 0.298946 10.5419 1.83461 9.649 3.66254C8.75615 5.49046 8.01123 6.99956 7.9901 7.02081C7.97425 7.03675 6.29421 7.29713 4.2602 7.59469C1.62391 7.97728 0.51445 8.15795 0.403504 8.22703C0.0495337 8.43426 -0.108961 8.97095 0.0812326 9.3376C0.123498 9.4173 1.22239 10.5279 2.52733 11.8032C3.82698 13.0785 5.03154 14.2634 5.2006 14.4335L5.50174 14.747L4.86776 18.4666C4.20208 22.3775 4.20737 22.3403 4.41869 22.6644C4.55077 22.8663 4.89946 23.0204 5.16362 22.9886C5.32211 22.9726 6.29949 22.4838 8.66634 21.2297C10.4732 20.2786 11.9736 19.4974 12.0053 19.4974C12.0317 19.4974 13.5268 20.2732 15.3231 21.2244C17.1194 22.1756 18.662 22.9673 18.7519 22.9832C19.016 23.0364 19.2749 22.962 19.4704 22.776C19.8243 22.4412 19.8349 22.5953 19.1322 18.4613L18.4983 14.747L18.7466 14.4866C18.8892 14.3431 20.0885 13.1582 21.4251 11.8563C22.7565 10.5491 23.8765 9.4173 23.9188 9.3376C24.109 8.97095 23.9505 8.43426 23.5965 8.22171C23.4803 8.15795 22.4131 7.9826 19.7398 7.58938C17.7058 7.29713 16.0258 7.03675 16.0099 7.0155C15.9888 6.99956 15.2438 5.49046 14.351 3.66254C13.4581 1.83461 12.6868 0.298946 12.6393 0.240496C12.4438 0.0120049 11.9313 -0.0730152 11.6038 0.0704556Z" fill="white"/>
</svg>
